<mxfile host="app.diagrams.net" modified="2021-06-21T13:08:11.583Z" agent="5.0 (Macintosh; Intel Mac OS X 10_15_7) AppleWebKit/537.36 (KHTML, like Gecko) Chrome/91.0.4472.106 Safari/537.36" etag="pNWR7s6HtNrZ9IWPfbGd" version="14.8.0" type="github">
  <diagram name="Page-1" id="74e2e168-ea6b-b213-b513-2b3c1d86103e">
    <mxGraphModel dx="1520" dy="902" grid="1" gridSize="10" guides="1" tooltips="1" connect="1" arrows="1" fold="1" page="1" pageScale="1" pageWidth="1100" pageHeight="850" background="none" math="0" shadow="0">
      <root>
        <mxCell id="0" />
        <mxCell id="1" parent="0" />
        <mxCell id="77e6c97f196da883-7" value="车队/司机小程序" style="swimlane;html=1;startSize=20;" parent="1" vertex="1">
          <mxGeometry x="900" y="130" width="160" height="730" as="geometry" />
        </mxCell>
        <mxCell id="VHHYy7nCU2r1kjMUVXUY-4" value="" style="edgeStyle=orthogonalEdgeStyle;rounded=0;orthogonalLoop=1;jettySize=auto;html=1;" edge="1" parent="77e6c97f196da883-7" source="4j0QmdxNdqsjYQywx_SV-141" target="VHHYy7nCU2r1kjMUVXUY-3">
          <mxGeometry relative="1" as="geometry" />
        </mxCell>
        <mxCell id="4j0QmdxNdqsjYQywx_SV-141" value="订单生成" style="rounded=1;whiteSpace=wrap;html=1;shadow=0;labelBackgroundColor=none;strokeWidth=1;fontFamily=Verdana;fontSize=8;align=center;" parent="77e6c97f196da883-7" vertex="1">
          <mxGeometry x="30" y="470" width="100" height="40" as="geometry" />
        </mxCell>
        <mxCell id="VHHYy7nCU2r1kjMUVXUY-1" value="落箱" style="rounded=1;whiteSpace=wrap;html=1;shadow=0;labelBackgroundColor=none;strokeWidth=1;fontFamily=Verdana;fontSize=8;align=center;" vertex="1" parent="77e6c97f196da883-7">
          <mxGeometry x="30" y="660" width="100" height="40" as="geometry" />
        </mxCell>
        <mxCell id="VHHYy7nCU2r1kjMUVXUY-3" value="到场" style="rounded=1;whiteSpace=wrap;html=1;shadow=0;labelBackgroundColor=none;strokeWidth=1;fontFamily=Verdana;fontSize=8;align=center;" vertex="1" parent="77e6c97f196da883-7">
          <mxGeometry x="30" y="550" width="100" height="40" as="geometry" />
        </mxCell>
        <mxCell id="77e6c97f196da883-6" value="支付系统" style="swimlane;html=1;startSize=20;" parent="1" vertex="1">
          <mxGeometry x="740" y="130" width="160" height="730" as="geometry" />
        </mxCell>
        <mxCell id="4j0QmdxNdqsjYQywx_SV-14" value="支付" style="rounded=1;whiteSpace=wrap;html=1;shadow=0;labelBackgroundColor=none;strokeWidth=1;fontFamily=Verdana;fontSize=8;align=center;" parent="77e6c97f196da883-6" vertex="1">
          <mxGeometry x="30" y="160" width="100" height="40" as="geometry" />
        </mxCell>
        <mxCell id="77e6c97f196da883-5" value="价格系统" style="swimlane;html=1;startSize=20;" parent="1" vertex="1">
          <mxGeometry x="580" y="130" width="160" height="730" as="geometry" />
        </mxCell>
        <mxCell id="4j0QmdxNdqsjYQywx_SV-11" value="获取价格" style="rounded=1;whiteSpace=wrap;html=1;shadow=0;labelBackgroundColor=none;strokeWidth=1;fontFamily=Verdana;fontSize=8;align=center;" parent="77e6c97f196da883-5" vertex="1">
          <mxGeometry x="30" y="65" width="100" height="40" as="geometry" />
        </mxCell>
        <mxCell id="77e6c97f196da883-4" value="调度系统" style="swimlane;html=1;startSize=20;" parent="1" vertex="1">
          <mxGeometry x="420" y="130" width="160" height="730" as="geometry" />
        </mxCell>
        <mxCell id="4j0QmdxNdqsjYQywx_SV-5" value="分配场地" style="rounded=1;whiteSpace=wrap;html=1;shadow=0;labelBackgroundColor=none;strokeWidth=1;fontFamily=Verdana;fontSize=8;align=center;" parent="77e6c97f196da883-4" vertex="1">
          <mxGeometry x="30" y="65" width="100" height="40" as="geometry" />
        </mxCell>
        <mxCell id="4j0QmdxNdqsjYQywx_SV-13" value="场地锁定" style="rounded=1;whiteSpace=wrap;html=1;shadow=0;labelBackgroundColor=none;strokeWidth=1;fontFamily=Verdana;fontSize=8;align=center;" parent="77e6c97f196da883-4" vertex="1">
          <mxGeometry x="30" y="160" width="100" height="40" as="geometry" />
        </mxCell>
        <mxCell id="4j0QmdxNdqsjYQywx_SV-140" value="分配车队/司机" style="rounded=1;whiteSpace=wrap;html=1;shadow=0;labelBackgroundColor=none;strokeWidth=1;fontFamily=Verdana;fontSize=8;align=center;" parent="77e6c97f196da883-4" vertex="1">
          <mxGeometry x="30" y="470" width="100" height="40" as="geometry" />
        </mxCell>
        <mxCell id="4j0QmdxNdqsjYQywx_SV-166" style="edgeStyle=orthogonalEdgeStyle;rounded=0;orthogonalLoop=1;jettySize=auto;html=1;" parent="77e6c97f196da883-4" source="4j0QmdxNdqsjYQywx_SV-163" target="4j0QmdxNdqsjYQywx_SV-140" edge="1">
          <mxGeometry relative="1" as="geometry" />
        </mxCell>
        <mxCell id="4j0QmdxNdqsjYQywx_SV-163" value="订单生成" style="rounded=1;whiteSpace=wrap;html=1;shadow=0;labelBackgroundColor=none;strokeWidth=1;fontFamily=Verdana;fontSize=8;align=center;" parent="77e6c97f196da883-4" vertex="1">
          <mxGeometry x="30" y="260" width="100" height="40" as="geometry" />
        </mxCell>
        <mxCell id="4j0QmdxNdqsjYQywx_SV-6" value="" style="edgeStyle=orthogonalEdgeStyle;rounded=0;orthogonalLoop=1;jettySize=auto;html=1;" parent="1" source="77e6c97f196da883-11" target="4j0QmdxNdqsjYQywx_SV-5" edge="1">
          <mxGeometry relative="1" as="geometry" />
        </mxCell>
        <mxCell id="77e6c97f196da883-3" value="基础数据" style="swimlane;html=1;startSize=20;" parent="1" vertex="1">
          <mxGeometry x="260" y="130" width="160" height="730" as="geometry" />
        </mxCell>
        <mxCell id="77e6c97f196da883-11" value="获取航次" style="rounded=1;whiteSpace=wrap;html=1;shadow=0;labelBackgroundColor=none;strokeWidth=1;fontFamily=Verdana;fontSize=8;align=center;" parent="77e6c97f196da883-3" vertex="1">
          <mxGeometry x="30" y="65" width="100" height="40" as="geometry" />
        </mxCell>
        <mxCell id="77e6c97f196da883-26" style="edgeStyle=orthogonalEdgeStyle;rounded=1;html=1;labelBackgroundColor=none;startArrow=none;startFill=0;startSize=5;endArrow=classicThin;endFill=1;endSize=5;jettySize=auto;orthogonalLoop=1;strokeWidth=1;fontFamily=Verdana;fontSize=8" parent="1" source="77e6c97f196da883-8" target="77e6c97f196da883-11" edge="1">
          <mxGeometry relative="1" as="geometry" />
        </mxCell>
        <mxCell id="77e6c97f196da883-2" value="订单系统" style="swimlane;html=1;startSize=20;" parent="1" vertex="1">
          <mxGeometry x="100" y="130" width="160" height="730" as="geometry" />
        </mxCell>
        <mxCell id="77e6c97f196da883-8" value="下单" style="rounded=1;whiteSpace=wrap;html=1;shadow=0;labelBackgroundColor=none;strokeWidth=1;fontFamily=Verdana;fontSize=8;align=center;" parent="77e6c97f196da883-2" vertex="1">
          <mxGeometry x="20" y="65" width="100" height="40" as="geometry" />
        </mxCell>
        <mxCell id="4j0QmdxNdqsjYQywx_SV-12" value="订单生成" style="rounded=1;whiteSpace=wrap;html=1;shadow=0;labelBackgroundColor=none;strokeWidth=1;fontFamily=Verdana;fontSize=8;align=center;" parent="77e6c97f196da883-2" vertex="1">
          <mxGeometry x="20" y="160" width="100" height="40" as="geometry" />
        </mxCell>
        <mxCell id="4j0QmdxNdqsjYQywx_SV-15" value="订单推送" style="rounded=1;whiteSpace=wrap;html=1;shadow=0;labelBackgroundColor=none;strokeWidth=1;fontFamily=Verdana;fontSize=8;align=center;" parent="77e6c97f196da883-2" vertex="1">
          <mxGeometry x="20" y="260" width="100" height="40" as="geometry" />
        </mxCell>
        <mxCell id="4j0QmdxNdqsjYQywx_SV-136" value="堆场系统" style="swimlane;html=1;startSize=20;" parent="1" vertex="1">
          <mxGeometry x="1060" y="130" width="160" height="730" as="geometry" />
        </mxCell>
        <mxCell id="4j0QmdxNdqsjYQywx_SV-143" value="进场" style="rounded=1;whiteSpace=wrap;html=1;shadow=0;labelBackgroundColor=none;strokeWidth=1;fontFamily=Verdana;fontSize=8;align=center;" parent="4j0QmdxNdqsjYQywx_SV-136" vertex="1">
          <mxGeometry x="30" y="550" width="100" height="40" as="geometry" />
        </mxCell>
        <mxCell id="4j0QmdxNdqsjYQywx_SV-154" value="" style="edgeStyle=orthogonalEdgeStyle;rounded=0;orthogonalLoop=1;jettySize=auto;html=1;" parent="4j0QmdxNdqsjYQywx_SV-136" source="4j0QmdxNdqsjYQywx_SV-16" target="4j0QmdxNdqsjYQywx_SV-26" edge="1">
          <mxGeometry relative="1" as="geometry" />
        </mxCell>
        <mxCell id="4j0QmdxNdqsjYQywx_SV-16" value="订单生成" style="rounded=1;whiteSpace=wrap;html=1;shadow=0;labelBackgroundColor=none;strokeWidth=1;fontFamily=Verdana;fontSize=8;align=center;" parent="4j0QmdxNdqsjYQywx_SV-136" vertex="1">
          <mxGeometry x="30" y="260" width="100" height="40" as="geometry" />
        </mxCell>
        <mxCell id="4j0QmdxNdqsjYQywx_SV-26" value="进场" style="rounded=1;whiteSpace=wrap;html=1;shadow=0;labelBackgroundColor=none;strokeWidth=1;fontFamily=Verdana;fontSize=8;align=center;" parent="4j0QmdxNdqsjYQywx_SV-136" vertex="1">
          <mxGeometry x="30" y="340" width="100" height="40" as="geometry" />
        </mxCell>
        <mxCell id="4j0QmdxNdqsjYQywx_SV-144" value="出场" style="rounded=1;whiteSpace=wrap;html=1;shadow=0;labelBackgroundColor=none;strokeWidth=1;fontFamily=Verdana;fontSize=8;align=center;" parent="4j0QmdxNdqsjYQywx_SV-136" vertex="1">
          <mxGeometry x="30" y="660" width="100" height="40" as="geometry" />
        </mxCell>
        <mxCell id="4j0QmdxNdqsjYQywx_SV-138" value="重机小程序" style="swimlane;html=1;startSize=20;" parent="1" vertex="1">
          <mxGeometry x="1220" y="130" width="160" height="730" as="geometry" />
        </mxCell>
        <mxCell id="4j0QmdxNdqsjYQywx_SV-139" value="落箱" style="rounded=1;whiteSpace=wrap;html=1;shadow=0;labelBackgroundColor=none;strokeWidth=1;fontFamily=Verdana;fontSize=8;align=center;" parent="4j0QmdxNdqsjYQywx_SV-138" vertex="1">
          <mxGeometry x="30" y="340" width="100" height="40" as="geometry" />
        </mxCell>
        <mxCell id="4j0QmdxNdqsjYQywx_SV-142" value="提箱" style="rounded=1;whiteSpace=wrap;html=1;shadow=0;labelBackgroundColor=none;strokeWidth=1;fontFamily=Verdana;fontSize=8;align=center;" parent="4j0QmdxNdqsjYQywx_SV-138" vertex="1">
          <mxGeometry x="30" y="550" width="100" height="40" as="geometry" />
        </mxCell>
        <mxCell id="4j0QmdxNdqsjYQywx_SV-146" value="" style="edgeStyle=orthogonalEdgeStyle;rounded=0;orthogonalLoop=1;jettySize=auto;html=1;" parent="1" source="4j0QmdxNdqsjYQywx_SV-5" target="4j0QmdxNdqsjYQywx_SV-11" edge="1">
          <mxGeometry relative="1" as="geometry" />
        </mxCell>
        <mxCell id="4j0QmdxNdqsjYQywx_SV-147" style="edgeStyle=orthogonalEdgeStyle;rounded=0;orthogonalLoop=1;jettySize=auto;html=1;entryX=0.6;entryY=-0.05;entryDx=0;entryDy=0;entryPerimeter=0;" parent="1" source="4j0QmdxNdqsjYQywx_SV-11" target="4j0QmdxNdqsjYQywx_SV-12" edge="1">
          <mxGeometry relative="1" as="geometry">
            <Array as="points">
              <mxPoint x="660" y="260" />
              <mxPoint x="180" y="260" />
            </Array>
          </mxGeometry>
        </mxCell>
        <mxCell id="4j0QmdxNdqsjYQywx_SV-148" style="edgeStyle=orthogonalEdgeStyle;rounded=0;orthogonalLoop=1;jettySize=auto;html=1;" parent="1" source="4j0QmdxNdqsjYQywx_SV-12" target="4j0QmdxNdqsjYQywx_SV-13" edge="1">
          <mxGeometry relative="1" as="geometry" />
        </mxCell>
        <mxCell id="4j0QmdxNdqsjYQywx_SV-149" style="edgeStyle=orthogonalEdgeStyle;rounded=0;orthogonalLoop=1;jettySize=auto;html=1;entryX=0;entryY=0.5;entryDx=0;entryDy=0;" parent="1" source="4j0QmdxNdqsjYQywx_SV-13" target="4j0QmdxNdqsjYQywx_SV-14" edge="1">
          <mxGeometry relative="1" as="geometry" />
        </mxCell>
        <mxCell id="4j0QmdxNdqsjYQywx_SV-152" style="edgeStyle=orthogonalEdgeStyle;rounded=0;orthogonalLoop=1;jettySize=auto;html=1;" parent="1" source="4j0QmdxNdqsjYQywx_SV-14" target="4j0QmdxNdqsjYQywx_SV-15" edge="1">
          <mxGeometry relative="1" as="geometry">
            <Array as="points">
              <mxPoint x="820" y="350" />
              <mxPoint x="170" y="350" />
            </Array>
          </mxGeometry>
        </mxCell>
        <mxCell id="4j0QmdxNdqsjYQywx_SV-155" value="" style="edgeStyle=orthogonalEdgeStyle;rounded=0;orthogonalLoop=1;jettySize=auto;html=1;" parent="1" source="4j0QmdxNdqsjYQywx_SV-26" target="4j0QmdxNdqsjYQywx_SV-139" edge="1">
          <mxGeometry relative="1" as="geometry" />
        </mxCell>
        <mxCell id="4j0QmdxNdqsjYQywx_SV-156" style="edgeStyle=orthogonalEdgeStyle;rounded=0;orthogonalLoop=1;jettySize=auto;html=1;" parent="1" source="4j0QmdxNdqsjYQywx_SV-140" target="4j0QmdxNdqsjYQywx_SV-141" edge="1">
          <mxGeometry relative="1" as="geometry" />
        </mxCell>
        <mxCell id="4j0QmdxNdqsjYQywx_SV-158" value="" style="edgeStyle=orthogonalEdgeStyle;rounded=0;orthogonalLoop=1;jettySize=auto;html=1;" parent="1" source="4j0QmdxNdqsjYQywx_SV-143" target="4j0QmdxNdqsjYQywx_SV-142" edge="1">
          <mxGeometry relative="1" as="geometry" />
        </mxCell>
        <mxCell id="4j0QmdxNdqsjYQywx_SV-159" style="edgeStyle=orthogonalEdgeStyle;rounded=0;orthogonalLoop=1;jettySize=auto;html=1;" parent="1" source="4j0QmdxNdqsjYQywx_SV-142" target="4j0QmdxNdqsjYQywx_SV-144" edge="1">
          <mxGeometry relative="1" as="geometry">
            <Array as="points">
              <mxPoint x="1300" y="760" />
              <mxPoint x="1140" y="760" />
            </Array>
          </mxGeometry>
        </mxCell>
        <mxCell id="4j0QmdxNdqsjYQywx_SV-160" style="edgeStyle=orthogonalEdgeStyle;rounded=0;orthogonalLoop=1;jettySize=auto;html=1;dashed=1;" parent="1" source="4j0QmdxNdqsjYQywx_SV-139" target="4j0QmdxNdqsjYQywx_SV-140" edge="1">
          <mxGeometry relative="1" as="geometry">
            <Array as="points">
              <mxPoint x="1300" y="550" />
              <mxPoint x="500" y="550" />
            </Array>
          </mxGeometry>
        </mxCell>
        <mxCell id="4j0QmdxNdqsjYQywx_SV-161" value="" style="edgeStyle=orthogonalEdgeStyle;rounded=0;orthogonalLoop=1;jettySize=auto;html=1;" parent="1" source="4j0QmdxNdqsjYQywx_SV-143" target="4j0QmdxNdqsjYQywx_SV-142" edge="1">
          <mxGeometry relative="1" as="geometry" />
        </mxCell>
        <mxCell id="4j0QmdxNdqsjYQywx_SV-164" style="edgeStyle=orthogonalEdgeStyle;rounded=0;orthogonalLoop=1;jettySize=auto;html=1;entryX=0;entryY=0.5;entryDx=0;entryDy=0;" parent="1" source="4j0QmdxNdqsjYQywx_SV-15" target="4j0QmdxNdqsjYQywx_SV-163" edge="1">
          <mxGeometry relative="1" as="geometry" />
        </mxCell>
        <mxCell id="4j0QmdxNdqsjYQywx_SV-165" style="edgeStyle=orthogonalEdgeStyle;rounded=0;orthogonalLoop=1;jettySize=auto;html=1;entryX=0;entryY=0.5;entryDx=0;entryDy=0;" parent="1" source="4j0QmdxNdqsjYQywx_SV-163" target="4j0QmdxNdqsjYQywx_SV-16" edge="1">
          <mxGeometry relative="1" as="geometry" />
        </mxCell>
        <mxCell id="VHHYy7nCU2r1kjMUVXUY-2" value="" style="edgeStyle=orthogonalEdgeStyle;rounded=0;orthogonalLoop=1;jettySize=auto;html=1;" edge="1" parent="1" source="4j0QmdxNdqsjYQywx_SV-144" target="VHHYy7nCU2r1kjMUVXUY-1">
          <mxGeometry relative="1" as="geometry" />
        </mxCell>
        <mxCell id="VHHYy7nCU2r1kjMUVXUY-5" value="" style="edgeStyle=orthogonalEdgeStyle;rounded=0;orthogonalLoop=1;jettySize=auto;html=1;" edge="1" parent="1" source="VHHYy7nCU2r1kjMUVXUY-3" target="4j0QmdxNdqsjYQywx_SV-143">
          <mxGeometry relative="1" as="geometry" />
        </mxCell>
      </root>
    </mxGraphModel>
  </diagram>
</mxfile>
